<svg width="235" height="211" viewBox="0 0 235 211" fill="none" xmlns="http://www.w3.org/2000/svg">
<path d="M234.243 119.067C234.243 177.847 200.934 210.546 132.862 210.546C84.8589 210.546 53.9867 194.342 40.1921 164.052L-0.000137329 183.274V147.583L32.4079 131.988C31.7989 127.778 31.7988 123.569 31.7988 119.067V91.4783C31.7988 32.3814 65.107 0 132.888 0C200.67 0 234.269 32.6727 234.269 91.4783V119.067H234.243ZM110.065 130.77L72.5735 148.457C81.258 166.753 100.772 174.855 132.862 174.855C179.038 174.855 198.843 158.068 198.843 119.067V91.4783C198.843 52.4775 179.038 35.3998 132.862 35.3998C86.6859 35.3998 67.1722 52.1863 67.1722 91.4783V115.466L110.065 95.0527V130.744V130.77Z" fill="white"/>
</svg>
