<svg width="156" height="110" viewBox="0 0 156 110" fill="none" xmlns="http://www.w3.org/2000/svg">
<path d="M68.1516 44.625C72.2531 44.625 74.5347 46.9492 74.5347 51.6992C74.5347 55.0487 73.4041 57.2029 71.2905 58.1655L72.6318 60.97H70.1413L69.0532 58.7087C68.7594 58.7512 68.4656 58.7512 68.1516 58.7512H66.2264C62.1028 58.7512 59.8433 56.427 59.8433 51.6973C59.8433 46.9677 62.1231 44.6232 66.2264 44.6232H68.1516V44.625ZM68.9682 53.2899L70.2023 55.906C71.4789 55.3 72.0443 53.9384 72.0443 51.6992C72.0443 48.4771 70.873 47.0952 68.1516 47.0952H66.2264C63.505 47.0952 62.3134 48.4771 62.3134 51.6992C62.3134 54.9212 63.4847 56.2829 66.2264 56.2829H67.9003L66.4759 53.2899H68.9663H68.9682Z" fill="white"/>
<path d="M80.6001 44.6268V54.0658C80.6001 55.4681 81.3114 56.2828 82.9428 56.2828H85.4536C87.0443 56.2828 87.7777 55.4681 87.7777 54.0658V44.6268H90.2054V54.2524C90.2054 57.2232 88.635 58.7511 85.6235 58.7511H82.6527C79.6376 58.7511 78.0894 57.2232 78.0894 54.2524V44.6268H80.6001Z" fill="white"/>
<path d="M101.882 44.6268C105.061 44.6268 106.423 46.5945 106.423 48.854C106.423 50.611 105.586 52.4954 103.43 53.1014L106.716 58.7511H103.973L100.751 53.2899H97.0687C96.8378 53.2899 96.7121 53.3952 96.7121 53.6446V58.7511H94.242V53.1642C94.242 51.5735 94.9108 50.925 96.4609 50.925H101.963C103.365 50.925 103.93 49.9625 103.93 48.9574C103.93 47.9524 103.324 47.0951 101.963 47.0951H94.2217V44.625H101.88L101.882 44.6268Z" fill="white"/>
<path d="M111.36 58.7512H108.638L113.599 46.1954C114.122 44.8763 115.086 44.3756 116.57 44.3756C118.053 44.3756 118.997 44.8763 119.5 46.1954L124.272 58.7512H121.53L117.24 47.3889C117.115 47.0545 116.884 46.9067 116.549 46.9067C116.215 46.9067 115.984 47.0545 115.838 47.3889L111.36 58.7512Z" fill="white"/>
<path d="M128.621 44.6268V53.857C128.621 55.2168 129.289 56.2828 131.508 56.2828H136.992V58.753H131.362C127.617 58.753 126.152 56.7022 126.152 53.8774V44.6287H128.622L128.621 44.6268Z" fill="white"/>
<path d="M34.5396 36.0045L18.1816 45.9128L24.2046 49.1977L34.6837 42.8496L45.4825 48.7857V48.8171L51.2948 45.2144L34.5396 36.0045Z" fill="white"/>
<path d="M34.7412 61.3284L30.5972 59.1816V52.9943L34.7412 55.1632V61.3284Z" fill="white"/>
<path d="M51.3501 61.6517L51.3372 45.2384L51.2966 45.2144L45.4824 48.817V58.6532L51.3501 61.6517Z" fill="white"/>
<path d="M55.7564 72.4302L34.7354 61.3469V55.1595L55.7564 66.2668V72.4302Z" fill="white"/>
<path d="M44.6545 68.6816L38.7443 65.3431L34.689 67.2091V73.9729L44.6545 68.6816Z" fill="white"/>
<path d="M34.6892 67.2091L24.1565 61.5538L24.1436 49.2345L24.2046 49.1957L18.1817 45.9146L18.1429 45.9367L18.1392 65.101L34.6892 73.9728V67.2091Z" fill="white"/>
<path d="M61.8196 67.0336V68.0035H62.9614V68.4451H61.8196V69.4575H63.1037V69.8991H61.2783V66.592H63.1037V67.0336H61.8196Z" fill="white"/>
<path d="M65.6444 67.3661C65.807 67.453 65.9344 67.5786 66.0268 67.7467C66.1192 67.9148 66.1654 68.1162 66.1654 68.3546V69.8991H65.6278V68.434C65.6278 68.2012 65.5686 68.0201 65.4522 67.8945C65.334 67.7707 65.1751 67.7079 64.9719 67.7079C64.7687 67.7079 64.6079 67.7707 64.4897 67.8945C64.3714 68.0201 64.3123 68.1994 64.3123 68.434V69.8991H63.771V67.2793H64.3123V67.5786C64.401 67.4714 64.5137 67.3865 64.6523 67.3273C64.7908 67.2682 64.9368 67.2386 65.092 67.2386C65.297 67.2386 65.4836 67.2793 65.6462 67.3661" fill="white"/>
<path d="M68.4469 67.3588C68.6039 67.44 68.7258 67.5417 68.8145 67.6617V67.2812H69.3614V69.9434C69.3614 70.1836 69.3115 70.3979 69.2099 70.5864C69.1083 70.7748 68.9605 70.9226 68.7683 71.0298C68.5762 71.1369 68.3489 71.1905 68.081 71.1905C67.7263 71.1905 67.4307 71.1074 67.1979 70.9411C66.9633 70.7748 66.8303 70.5494 66.7989 70.2631H67.3346C67.3753 70.3998 67.464 70.5088 67.5988 70.5938C67.7337 70.6787 67.8944 70.7194 68.081 70.7194C68.3009 70.7194 68.4764 70.6529 68.6113 70.5199C68.7462 70.3868 68.8145 70.1947 68.8145 69.9416V69.5037C68.7221 69.6257 68.5984 69.731 68.4413 69.816C68.2843 69.8991 68.1069 69.9416 67.9074 69.9416C67.6783 69.9416 67.4695 69.8825 67.2829 69.7661C67.0945 69.6515 66.9448 69.4889 66.8358 69.282C66.7268 69.0751 66.6714 68.8405 66.6714 68.5763C66.6714 68.3121 66.7268 68.0811 66.8358 67.8779C66.9448 67.6747 67.0945 67.5176 67.2829 67.4049C67.4695 67.2922 67.6783 67.2368 67.9074 67.2368C68.1106 67.2368 68.2898 67.2775 68.4469 67.3569M68.7037 68.1162C68.6298 67.9832 68.5318 67.8816 68.4118 67.8114C68.2898 67.743 68.1623 67.7061 68.0219 67.7061C67.8815 67.7061 67.754 67.7393 67.6321 67.8077C67.512 67.8761 67.4141 67.9758 67.3402 68.107C67.2644 68.2382 67.2275 68.3952 67.2275 68.5763C67.2275 68.7573 67.2644 68.9162 67.3402 69.0529C67.4141 69.1896 67.512 69.2931 67.6358 69.3633C67.7577 69.4354 67.8852 69.4705 68.0219 69.4705C68.1586 69.4705 68.2898 69.4354 68.4118 69.3652C68.5318 69.2968 68.6298 69.1933 68.7037 69.0585C68.7794 68.9255 68.8164 68.7666 68.8164 68.5855C68.8164 68.4045 68.7794 68.2493 68.7037 68.1162Z" fill="white"/>
<path d="M70.1042 66.834C70.0358 66.7657 70.0044 66.6844 70.0044 66.5865C70.0044 66.4886 70.0358 66.4054 70.1042 66.3389C70.1707 66.2724 70.2538 66.2391 70.3517 66.2391C70.4496 66.2391 70.5272 66.2724 70.5938 66.3389C70.6621 66.4054 70.6935 66.4886 70.6935 66.5865C70.6935 66.6844 70.6621 66.7657 70.5938 66.834C70.5272 66.9005 70.446 66.9338 70.3517 66.9338C70.2538 66.9338 70.1707 66.9005 70.1042 66.834ZM70.6178 69.8991H70.0764V67.2811H70.6178V69.8991Z" fill="white"/>
<path d="M73.2044 67.3661C73.367 67.453 73.4945 67.5786 73.5869 67.7467C73.6793 67.9148 73.7254 68.1162 73.7254 68.3546V69.8991H73.1878V68.434C73.1878 68.2012 73.1287 68.0201 73.0123 67.8945C72.8941 67.7707 72.7352 67.7079 72.5319 67.7079C72.3287 67.7079 72.168 67.7707 72.0497 67.8945C71.9315 68.0201 71.8724 68.1994 71.8724 68.434V69.8991H71.3311V67.2793H71.8724V67.5786C71.9611 67.4714 72.0738 67.3865 72.2123 67.3273C72.3509 67.2682 72.4968 67.2386 72.652 67.2386C72.8571 67.2386 73.0437 67.2793 73.2063 67.3661" fill="white"/>
<path d="M76.796 68.7924H74.7952C74.8099 69.0012 74.8894 69.1693 75.0279 69.2968C75.1665 69.4224 75.3383 69.4871 75.5416 69.4871C75.8335 69.4871 76.0385 69.3651 76.1586 69.1194H76.7443C76.6648 69.3614 76.5207 69.5591 76.3138 69.7125C76.1069 69.8658 75.8482 69.9434 75.5416 69.9434C75.2921 69.9434 75.0667 69.8861 74.869 69.7753C74.6714 69.6626 74.5162 69.5037 74.4035 69.2986C74.2908 69.0936 74.2354 68.8571 74.2354 68.5892C74.2354 68.3213 74.2889 68.083 74.3998 67.8779C74.5088 67.6728 74.6621 67.5158 74.8598 67.4049C75.0575 67.2941 75.2847 67.2386 75.5416 67.2386C75.7984 67.2386 76.009 67.2922 76.2011 67.3994C76.3933 67.5065 76.5448 67.658 76.6519 67.8539C76.7591 68.0479 76.8126 68.2714 76.8126 68.5245C76.8126 68.6224 76.8071 68.7111 76.7942 68.7924M76.2491 68.3546C76.2455 68.155 76.1752 67.9943 76.0348 67.8742C75.8944 67.7541 75.7226 67.695 75.5157 67.695C75.3291 67.695 75.1702 67.7541 75.0372 67.8723C74.9042 67.9906 74.8247 68.1513 74.7988 68.3546H76.2491Z" fill="white"/>
<path d="M79.7281 68.7924H77.7273C77.7421 69.0012 77.8215 69.1693 77.9601 69.2968C78.0986 69.4224 78.2705 69.4871 78.4737 69.4871C78.7656 69.4871 78.9707 69.3651 79.0908 69.1194H79.6764C79.597 69.3614 79.4529 69.5591 79.2459 69.7125C79.039 69.8658 78.7804 69.9434 78.4737 69.9434C78.2243 69.9434 77.9989 69.8861 77.8012 69.7753C77.6035 69.6626 77.4483 69.5037 77.3356 69.2986C77.2229 69.0936 77.1675 68.8571 77.1675 68.5892C77.1675 68.3213 77.2211 68.083 77.3319 67.8779C77.4409 67.6728 77.5943 67.5158 77.7919 67.4049C77.9896 67.2941 78.2169 67.2386 78.4737 67.2386C78.7305 67.2386 78.9411 67.2922 79.1332 67.3994C79.3272 67.5065 79.4769 67.658 79.584 67.8539C79.6912 68.0479 79.7448 68.2714 79.7448 68.5245C79.7448 68.6224 79.7392 68.7111 79.7263 68.7924M79.1813 68.3546C79.1776 68.155 79.1074 67.9943 78.967 67.8742C78.8266 67.7541 78.6547 67.695 78.4478 67.695C78.2612 67.695 78.1023 67.7541 77.9693 67.8723C77.8363 67.9906 77.7568 68.1513 77.731 68.3546H79.1813Z" fill="white"/>
<path d="M81.138 67.3495C81.2692 67.2756 81.4244 67.2368 81.6073 67.2368V67.7985H81.4687C81.2563 67.7985 81.0955 67.852 80.9865 67.9592C80.8775 68.0664 80.8221 68.2548 80.8221 68.519V69.8972H80.2808V67.2793H80.8221V67.6599C80.9015 67.5269 81.0068 67.4234 81.138 67.3477" fill="white"/>
<path d="M82.132 66.834C82.0655 66.7657 82.0322 66.6844 82.0322 66.5865C82.0322 66.4886 82.0655 66.4054 82.132 66.3389C82.2003 66.2724 82.2816 66.2391 82.3796 66.2391C82.4775 66.2391 82.5569 66.2724 82.6216 66.3389C82.6899 66.4054 82.7213 66.4886 82.7213 66.5865C82.7213 66.6844 82.6899 66.7657 82.6216 66.834C82.5551 66.9005 82.4738 66.9338 82.3796 66.9338C82.2853 66.9338 82.2003 66.9005 82.132 66.834ZM82.6474 69.8991H82.1061V67.2811H82.6474V69.8991Z" fill="white"/>
<path d="M85.2337 67.3661C85.3963 67.453 85.5238 67.5786 85.6162 67.7467C85.7085 67.9148 85.7547 68.1162 85.7547 68.3546V69.8991H85.2171V68.434C85.2171 68.2012 85.158 68.0201 85.0416 67.8945C84.9233 67.7707 84.7645 67.7079 84.5612 67.7079C84.358 67.7079 84.1973 67.7707 84.079 67.8945C83.9608 68.0201 83.9017 68.1994 83.9017 68.434V69.8991H83.3604V67.2793H83.9017V67.5786C83.9904 67.4714 84.1031 67.3865 84.2416 67.3273C84.3802 67.2682 84.5261 67.2386 84.6813 67.2386C84.8864 67.2386 85.073 67.2793 85.2356 67.3661" fill="white"/>
<path d="M88.0382 67.3588C88.1952 67.44 88.3171 67.5417 88.4058 67.6617V67.2812H88.9527V69.9434C88.9527 70.1836 88.9028 70.3979 88.8012 70.5864C88.6996 70.7748 88.5518 70.9226 88.3596 71.0298C88.1675 71.1369 87.9402 71.1905 87.6724 71.1905C87.3176 71.1905 87.022 71.1074 86.7892 70.9411C86.5546 70.7748 86.4216 70.5494 86.3902 70.2631H86.926C86.9666 70.3998 87.0553 70.5088 87.1901 70.5938C87.325 70.6787 87.4858 70.7194 87.6724 70.7194C87.8922 70.7194 88.0677 70.6529 88.2026 70.5199C88.3375 70.3868 88.4058 70.1947 88.4058 69.9416V69.5037C88.3134 69.6257 88.1897 69.731 88.0326 69.816C87.8756 69.8991 87.6982 69.9416 87.4987 69.9416C87.2696 69.9416 87.0608 69.8825 86.8742 69.7661C86.6858 69.6515 86.5361 69.4889 86.4271 69.282C86.3181 69.0751 86.2627 68.8405 86.2627 68.5763C86.2627 68.3121 86.3181 68.0811 86.4271 67.8779C86.5361 67.6747 86.6858 67.5176 86.8742 67.4049C87.0608 67.2922 87.2696 67.2368 87.4987 67.2368C87.7019 67.2368 87.8811 67.2775 88.0382 67.3569M88.295 68.1162C88.2211 67.9832 88.1231 67.8816 88.0031 67.8114C87.8811 67.743 87.7536 67.7061 87.6132 67.7061C87.4728 67.7061 87.3453 67.7393 87.2234 67.8077C87.1033 67.8761 87.0054 67.9758 86.9315 68.107C86.8557 68.2382 86.8188 68.3952 86.8188 68.5763C86.8188 68.7573 86.8557 68.9162 86.9315 69.0529C87.0054 69.1896 87.1033 69.2931 87.2271 69.3633C87.349 69.4354 87.4765 69.4705 87.6132 69.4705C87.7499 69.4705 87.8811 69.4354 88.0031 69.3652C88.1231 69.2968 88.2211 69.1933 88.295 69.0585C88.3707 68.9255 88.4077 68.7666 88.4077 68.5855C88.4077 68.4045 88.3707 68.2493 88.295 68.1162Z" fill="white"/>
<path d="M93.0357 66.5957V67.0391H92.1563V69.8991H91.6149V67.0391H90.73V66.5957H93.0357Z" fill="white"/>
<path d="M94.0483 69.7735C93.8488 69.6608 93.6917 69.5037 93.5791 69.2987C93.4645 69.0936 93.4072 68.8571 93.4072 68.5874C93.4072 68.3176 93.4664 68.0848 93.5846 67.8798C93.701 67.6747 93.8617 67.5158 94.0649 67.4049C94.2682 67.2922 94.4936 67.2368 94.743 67.2368C94.9924 67.2368 95.2215 67.2922 95.4229 67.4049C95.6261 67.5158 95.785 67.6728 95.9014 67.8798C96.0196 68.0848 96.0787 68.3213 96.0787 68.5874C96.0787 68.8534 96.0196 69.0899 95.8977 69.295C95.7776 69.5019 95.6132 69.6608 95.4063 69.7735C95.1993 69.888 94.9702 69.9416 94.719 69.9416C94.4677 69.9416 94.2478 69.8862 94.0483 69.7735ZM95.1106 69.3725C95.2326 69.306 95.3324 69.2063 95.4063 69.0733C95.4838 68.9402 95.5208 68.7776 95.5208 68.5874C95.5208 68.3971 95.4838 68.2363 95.4118 68.1052C95.3379 67.974 95.2418 67.8742 95.1217 67.8095C94.9998 67.7412 94.8723 67.7098 94.7319 67.7098C94.5915 67.7098 94.464 67.7412 94.3458 67.8095C94.2257 67.8761 94.1315 67.9758 94.0631 68.1052C93.9929 68.2363 93.9578 68.3989 93.9578 68.5874C93.9578 68.87 94.0298 69.088 94.174 69.2414C94.3181 69.3947 94.4991 69.4723 94.719 69.4723C94.8575 69.4723 94.9887 69.4391 95.1106 69.3725Z" fill="white"/>
<path d="M100.339 67.3661C100.502 67.453 100.631 67.5786 100.725 67.7467C100.819 67.9148 100.866 68.1162 100.866 68.3546V69.8991H100.328V68.434C100.328 68.2012 100.269 68.0201 100.152 67.8945C100.034 67.7707 99.8753 67.7079 99.6721 67.7079C99.4689 67.7079 99.3082 67.7707 99.1899 67.8945C99.0717 68.0201 99.0125 68.1994 99.0125 68.434V69.8991H98.4749V68.434C98.4749 68.2012 98.4158 68.0201 98.2994 67.8945C98.1812 67.7707 98.0223 67.7079 97.8191 67.7079C97.6158 67.7079 97.4551 67.7707 97.3368 67.8945C97.2186 68.0201 97.1595 68.1994 97.1595 68.434V69.8991H96.6182V67.2793H97.1595V67.5786C97.2482 67.4714 97.3609 67.3865 97.4976 67.3273C97.6324 67.2682 97.7784 67.2386 97.9336 67.2386C98.1442 67.2386 98.329 67.2811 98.4952 67.3698C98.6597 67.4585 98.7871 67.586 98.874 67.756C98.9534 67.5971 99.0772 67.4714 99.2453 67.3791C99.4135 67.2848 99.5945 67.2386 99.7867 67.2386C99.9917 67.2386 100.178 67.2793 100.341 67.3661" fill="white"/>
<path d="M102.019 69.7735C101.819 69.6608 101.662 69.5037 101.549 69.2987C101.435 69.0936 101.377 68.8571 101.377 68.5874C101.377 68.3176 101.437 68.0848 101.555 67.8798C101.671 67.6747 101.832 67.5158 102.035 67.4049C102.238 67.2922 102.464 67.2368 102.713 67.2368C102.963 67.2368 103.192 67.2922 103.393 67.4049C103.596 67.5158 103.755 67.6728 103.872 67.8798C103.99 68.0848 104.049 68.3213 104.049 68.5874C104.049 68.8534 103.99 69.0899 103.868 69.295C103.748 69.5019 103.583 69.6608 103.376 69.7735C103.17 69.888 102.94 69.9416 102.689 69.9416C102.438 69.9416 102.218 69.8862 102.019 69.7735ZM103.081 69.3725C103.203 69.306 103.303 69.2063 103.376 69.0733C103.454 68.9402 103.491 68.7776 103.491 68.5874C103.491 68.3971 103.454 68.2363 103.382 68.1052C103.308 67.974 103.212 67.8742 103.092 67.8095C102.97 67.7412 102.843 67.7098 102.702 67.7098C102.562 67.7098 102.434 67.7412 102.316 67.8095C102.196 67.8761 102.102 67.9758 102.033 68.1052C101.963 68.2363 101.928 68.3989 101.928 68.5874C101.928 68.87 102 69.088 102.144 69.2414C102.288 69.3947 102.469 69.4723 102.689 69.4723C102.828 69.4723 102.959 69.4391 103.081 69.3725Z" fill="white"/>
<path d="M105.442 67.3495C105.573 67.2756 105.728 67.2368 105.911 67.2368V67.7985H105.772C105.56 67.7985 105.399 67.852 105.29 67.9592C105.181 68.0664 105.126 68.2548 105.126 68.519V69.8972H104.584V67.2793H105.126V67.6599C105.205 67.5269 105.311 67.4234 105.442 67.3477" fill="white"/>
<path d="M107.267 67.3495C107.398 67.2756 107.553 67.2368 107.736 67.2368V67.7985H107.598C107.385 67.7985 107.224 67.852 107.115 67.9592C107.006 68.0664 106.951 68.2548 106.951 68.519V69.8972H106.41V67.2793H106.951V67.6599C107.03 67.5269 107.136 67.4234 107.267 67.3477" fill="white"/>
<path d="M108.701 69.7735C108.501 69.6608 108.344 69.5037 108.231 69.2987C108.117 69.0936 108.06 68.8571 108.06 68.5874C108.06 68.3176 108.119 68.0848 108.237 67.8798C108.353 67.6747 108.514 67.5158 108.717 67.4049C108.921 67.2922 109.146 67.2368 109.395 67.2368C109.645 67.2368 109.874 67.2922 110.075 67.4049C110.278 67.5158 110.437 67.6728 110.554 67.8798C110.672 68.0848 110.731 68.3213 110.731 68.5874C110.731 68.8534 110.672 69.0899 110.55 69.295C110.43 69.5019 110.266 69.6608 110.059 69.7735C109.852 69.888 109.623 69.9416 109.371 69.9416C109.12 69.9416 108.9 69.8862 108.701 69.7735ZM109.763 69.3725C109.885 69.306 109.985 69.2063 110.059 69.0733C110.136 68.9402 110.173 68.7776 110.173 68.5874C110.173 68.3971 110.136 68.2363 110.064 68.1052C109.99 67.974 109.894 67.8742 109.774 67.8095C109.652 67.7412 109.525 67.7098 109.384 67.7098C109.244 67.7098 109.116 67.7412 108.998 67.8095C108.878 67.8761 108.784 67.9758 108.715 68.1052C108.645 68.2363 108.61 68.3989 108.61 68.5874C108.61 68.87 108.682 69.088 108.826 69.2414C108.97 69.3947 109.151 69.4723 109.371 69.4723C109.51 69.4723 109.641 69.4391 109.763 69.3725Z" fill="white"/>
<path d="M114.785 67.2811L113.972 69.8991H113.401L112.874 67.9647L112.346 69.8991H111.775L110.958 67.2811H111.509L112.056 69.3855L112.612 67.2811H113.177L113.711 69.3762L114.251 67.2811H114.785Z" fill="white"/>
<path d="M118.557 66.5957V67.0391H117.678V69.8991H117.136V67.0391H116.251V66.5957H118.557Z" fill="white"/>
<path d="M119.57 69.7735C119.37 69.6608 119.213 69.5037 119.101 69.2987C118.986 69.0936 118.929 68.8571 118.929 68.5874C118.929 68.3176 118.988 68.0848 119.106 67.8798C119.222 67.6747 119.383 67.5158 119.586 67.4049C119.79 67.2922 120.015 67.2368 120.264 67.2368C120.514 67.2368 120.743 67.2922 120.944 67.4049C121.148 67.5158 121.306 67.6728 121.423 67.8798C121.541 68.0848 121.6 68.3213 121.6 68.5874C121.6 68.8534 121.541 69.0899 121.419 69.295C121.299 69.5019 121.135 69.6608 120.928 69.7735C120.721 69.888 120.492 69.9416 120.24 69.9416C119.989 69.9416 119.769 69.8862 119.57 69.7735ZM120.632 69.3725C120.754 69.306 120.854 69.2063 120.928 69.0733C121.005 68.9402 121.042 68.7776 121.042 68.5874C121.042 68.3971 121.005 68.2363 120.933 68.1052C120.859 67.974 120.763 67.8742 120.643 67.8095C120.521 67.7412 120.394 67.7098 120.253 67.7098C120.113 67.7098 119.985 67.7412 119.867 67.8095C119.747 67.8761 119.653 67.9758 119.585 68.1052C119.514 68.2363 119.479 68.3989 119.479 68.5874C119.479 68.87 119.551 69.088 119.695 69.2414C119.84 69.3947 120.021 69.4723 120.24 69.4723C120.379 69.4723 120.51 69.4391 120.632 69.3725Z" fill="white"/>
<path d="M123.731 67.3588C123.888 67.44 124.01 67.5417 124.098 67.6617V67.2812H124.645V69.9434C124.645 70.1836 124.595 70.3979 124.494 70.5864C124.392 70.7748 124.244 70.9226 124.052 71.0298C123.86 71.1369 123.633 71.1905 123.365 71.1905C123.01 71.1905 122.714 71.1074 122.482 70.9411C122.247 70.7748 122.114 70.5494 122.083 70.2631H122.618C122.659 70.3998 122.748 70.5088 122.883 70.5938C123.017 70.6787 123.178 70.7194 123.365 70.7194C123.585 70.7194 123.76 70.6529 123.895 70.5199C124.03 70.3868 124.098 70.1947 124.098 69.9416V69.5037C124.006 69.6257 123.882 69.731 123.725 69.816C123.568 69.8991 123.391 69.9416 123.191 69.9416C122.962 69.9416 122.753 69.8825 122.567 69.7661C122.378 69.6515 122.229 69.4889 122.12 69.282C122.011 69.0751 121.955 68.8405 121.955 68.5763C121.955 68.3121 122.011 68.0811 122.12 67.8779C122.229 67.6747 122.378 67.5176 122.567 67.4049C122.753 67.2922 122.962 67.2368 123.191 67.2368C123.394 67.2368 123.574 67.2775 123.731 67.3569M123.987 68.1162C123.913 67.9832 123.816 67.8816 123.695 67.8114C123.574 67.743 123.446 67.7061 123.306 67.7061C123.165 67.7061 123.038 67.7393 122.916 67.8077C122.796 67.8761 122.698 67.9758 122.624 68.107C122.548 68.2382 122.511 68.3952 122.511 68.5763C122.511 68.7573 122.548 68.9162 122.624 69.0529C122.698 69.1896 122.796 69.2931 122.919 69.3633C123.041 69.4354 123.169 69.4705 123.306 69.4705C123.442 69.4705 123.574 69.4354 123.695 69.3652C123.816 69.2968 123.913 69.1933 123.987 69.0585C124.063 68.9255 124.1 68.7666 124.1 68.5855C124.1 68.4045 124.063 68.2493 123.987 68.1162Z" fill="white"/>
<path d="M127.739 68.7924H125.739C125.753 69.0012 125.833 69.1693 125.971 69.2968C126.11 69.4224 126.282 69.4871 126.485 69.4871C126.777 69.4871 126.982 69.3651 127.102 69.1194H127.688C127.608 69.3614 127.464 69.5591 127.257 69.7125C127.05 69.8658 126.792 69.9434 126.485 69.9434C126.235 69.9434 126.01 69.8861 125.812 69.7753C125.615 69.6626 125.46 69.5037 125.347 69.2986C125.234 69.0936 125.179 68.8571 125.179 68.5892C125.179 68.3213 125.232 68.083 125.343 67.8779C125.452 67.6728 125.605 67.5158 125.803 67.4049C126.001 67.2941 126.228 67.2386 126.485 67.2386C126.742 67.2386 126.952 67.2922 127.144 67.3994C127.337 67.5065 127.488 67.658 127.595 67.8539C127.702 68.0479 127.756 68.2714 127.756 68.5245C127.756 68.6224 127.75 68.7111 127.738 68.7924M127.193 68.3546C127.189 68.155 127.119 67.9943 126.978 67.8742C126.838 67.7541 126.666 67.695 126.459 67.695C126.272 67.695 126.114 67.7541 125.981 67.8723C125.848 67.9906 125.768 68.1513 125.742 68.3546H127.193Z" fill="white"/>
<path d="M128.924 67.7227V69.173C128.924 69.271 128.946 69.3412 128.992 69.3855C129.038 69.4299 129.116 69.4483 129.227 69.4483H129.559V69.8991H129.131C128.887 69.8991 128.7 69.8419 128.571 69.7292C128.44 69.6146 128.375 69.4299 128.375 69.173V67.7227H128.066V67.2812H128.375V66.6309H128.922V67.2812H129.559V67.7227H128.922H128.924Z" fill="white"/>
<path d="M131.948 67.3661C132.105 67.4529 132.229 67.5785 132.318 67.7467C132.408 67.9148 132.454 68.1162 132.454 68.3545V69.899H131.917V68.4339C131.917 68.2012 131.858 68.0201 131.739 67.8945C131.623 67.7707 131.462 67.7079 131.261 67.7079C131.06 67.7079 130.897 67.7707 130.779 67.8945C130.659 68.0201 130.601 68.1993 130.601 68.4339V69.899H130.06V66.3813H130.601V67.5841C130.692 67.4732 130.808 67.3883 130.951 67.3273C131.091 67.2682 131.246 67.2386 131.414 67.2386C131.614 67.2386 131.791 67.2792 131.948 67.3661Z" fill="white"/>
<path d="M135.525 68.7924H133.524C133.539 69.0012 133.618 69.1693 133.757 69.2968C133.896 69.4224 134.067 69.4871 134.271 69.4871C134.562 69.4871 134.768 69.3651 134.888 69.1194H135.473C135.394 69.3614 135.25 69.5591 135.043 69.7125C134.836 69.8658 134.577 69.9434 134.271 69.9434C134.021 69.9434 133.796 69.8861 133.598 69.7753C133.4 69.6626 133.245 69.5037 133.132 69.2986C133.02 69.0936 132.964 68.8571 132.964 68.5892C132.964 68.3213 133.018 68.083 133.129 67.8779C133.238 67.6728 133.391 67.5158 133.589 67.4049C133.787 67.2941 134.014 67.2386 134.271 67.2386C134.527 67.2386 134.738 67.2922 134.93 67.3994C135.122 67.5065 135.274 67.658 135.381 67.8539C135.488 68.0479 135.542 68.2714 135.542 68.5245C135.542 68.6224 135.536 68.7111 135.523 68.7924M134.978 68.3546C134.974 68.155 134.904 67.9943 134.764 67.8742C134.623 67.7541 134.452 67.695 134.245 67.695C134.058 67.695 133.899 67.7541 133.766 67.8723C133.633 67.9906 133.554 68.1513 133.528 68.3546H134.978Z" fill="white"/>
<path d="M136.933 67.3495C137.064 67.2756 137.219 67.2368 137.402 67.2368V67.7985H137.264C137.051 67.7985 136.89 67.852 136.781 67.9592C136.672 68.0664 136.617 68.2548 136.617 68.519V69.8972H136.076V67.2793H136.617V67.6599C136.696 67.5269 136.802 67.4234 136.933 67.3477" fill="white"/>
</svg>
