<svg width="255" height="80" viewBox="0 0 255 80" fill="none" xmlns="http://www.w3.org/2000/svg">
<path d="M34.5562 0L0.0898438 20.8768L12.7802 27.7981L34.8599 14.4226L57.613 26.93V26.9962L69.8595 19.4053L34.5562 0Z" fill="#F05D50"/>
<path d="M34.98 53.358L26.2485 48.8347V35.7979L34.98 40.3679V53.358Z" fill="#EC3644"/>
<path d="M69.9762 54.039L69.9489 19.4559L69.8633 19.4053L57.6128 26.9961V47.7211L69.9762 54.039Z" fill="#BA1F37"/>
<path d="M79.2604 76.7497L34.9688 53.3972V40.3604L79.2604 63.7635V76.7497Z" fill="#BA1F37"/>
<path d="M55.8686 68.8506L43.4157 61.8164L34.8711 65.7481V79.9994L55.8686 68.8506Z" fill="#BA1F37"/>
<path d="M34.8712 65.7487L12.6787 53.833L12.6514 27.8761L12.7799 27.7944L0.0895345 20.8809L0.00778419 20.9276L0 61.307L34.8712 80V65.7487Z" fill="#EC3644"/>
<path d="M109.308 12.1826C117.95 12.1826 122.757 17.0797 122.757 27.0879C122.757 34.1455 120.375 38.6844 115.922 40.7125L118.748 46.6217H113.5L111.208 41.857C110.589 41.9465 109.97 41.9465 109.308 41.9465H105.252C96.5631 41.9465 91.8022 37.0495 91.8022 27.084C91.8022 17.1186 96.6059 12.1787 105.252 12.1787H109.308V12.1826ZM111.029 30.4396L113.629 35.9517C116.319 34.6749 117.51 31.8059 117.51 27.0879C117.51 20.299 115.042 17.3872 109.308 17.3872H105.252C99.5177 17.3872 97.0068 20.299 97.0068 27.0879C97.0068 33.8769 99.4748 36.7458 105.252 36.7458H108.779L105.777 30.4396H111.025H111.029Z" fill="#EC3644"/>
<path d="M135.537 12.1865V32.0746C135.537 35.0292 137.036 36.7459 140.473 36.7459H145.764C149.115 36.7459 150.661 35.0292 150.661 32.0746V12.1865H155.776V32.4677C155.776 38.7273 152.467 41.9466 146.122 41.9466H139.862C133.509 41.9466 130.247 38.7273 130.247 32.4677V12.1865H135.537Z" fill="#EC3644"/>
<path d="M180.378 12.1865C187.077 12.1865 189.946 16.3323 189.946 21.0931C189.946 24.7951 188.183 28.7657 183.64 30.0425L190.565 41.9466H184.784L177.995 30.4396H170.237C169.75 30.4396 169.486 30.6615 169.486 31.187V41.9466H164.281V30.1749C164.281 26.8232 165.69 25.4569 168.956 25.4569H180.549C183.503 25.4569 184.695 23.4288 184.695 21.3111C184.695 19.1935 183.418 17.3872 180.549 17.3872H164.238V12.1826H180.374L180.378 12.1865Z" fill="#EC3644"/>
<path d="M200.347 41.9457H194.613L205.065 15.4906C206.167 12.7112 208.199 11.6562 211.325 11.6562C214.451 11.6562 216.44 12.7112 217.499 15.4906L227.554 41.9457H221.777L212.738 18.0053C212.473 17.3007 211.987 16.9893 211.282 16.9893C210.577 16.9893 210.091 17.3007 209.783 18.0053L200.347 41.9457Z" fill="#EC3644"/>
<path d="M236.718 12.1865V31.6347C236.718 34.4997 238.127 36.7459 242.802 36.7459H254.356V41.9505H242.495C234.604 41.9505 231.517 37.6295 231.517 31.6775V12.1904H236.722L236.718 12.1865Z" fill="#EC3644"/>
<path d="M95.1035 59.5847V61.6283H97.5092V62.5587H95.1035V64.692H97.8089V65.6223H93.9629V58.6543H97.8089V59.5847H95.1035Z" fill="#6E6F72"/>
<path d="M103.162 60.2852C103.504 60.4682 103.773 60.7329 103.967 61.0871C104.162 61.4413 104.259 61.8657 104.259 62.3678V65.6222H103.127V62.5352C103.127 62.0447 103.002 61.6632 102.757 61.3985C102.508 61.1377 102.173 61.0054 101.745 61.0054C101.316 61.0054 100.978 61.1377 100.729 61.3985C100.479 61.6632 100.355 62.0408 100.355 62.5352V65.6222H99.2144V60.1022H100.355V60.7329C100.542 60.5071 100.779 60.328 101.071 60.2035C101.363 60.0789 101.671 60.0166 101.998 60.0166C102.43 60.0166 102.823 60.1022 103.165 60.2852" fill="#6E6F72"/>
<path d="M109.067 60.2696C109.398 60.4409 109.655 60.655 109.842 60.908V60.1061H110.994V65.7156C110.994 66.2216 110.889 66.6732 110.675 67.0702C110.461 67.4673 110.149 67.7787 109.744 68.0045C109.34 68.2303 108.861 68.3432 108.296 68.3432C107.549 68.3432 106.926 68.168 106.436 67.8177C105.941 67.4673 105.661 66.9924 105.595 66.389H106.724C106.809 66.6771 106.996 66.9068 107.28 67.0858C107.565 67.2649 107.903 67.3505 108.296 67.3505C108.76 67.3505 109.129 67.2104 109.414 66.9301C109.698 66.6498 109.842 66.245 109.842 65.7117V64.7891C109.647 65.046 109.386 65.2679 109.055 65.447C108.725 65.6222 108.351 65.7117 107.93 65.7117C107.448 65.7117 107.008 65.5871 106.615 65.3419C106.218 65.1005 105.902 64.758 105.673 64.322C105.443 63.886 105.326 63.3916 105.326 62.8349C105.326 62.2783 105.443 61.7917 105.673 61.3635C105.902 60.9353 106.218 60.6044 106.615 60.3669C107.008 60.1295 107.448 60.0127 107.93 60.0127C108.359 60.0127 108.736 60.0983 109.067 60.2657M109.608 61.8656C109.452 61.5854 109.246 61.3713 108.993 61.2233C108.736 61.0793 108.468 61.0015 108.172 61.0015C107.876 61.0015 107.607 61.0715 107.35 61.2156C107.097 61.3596 106.891 61.5698 106.735 61.8462C106.576 62.1226 106.498 62.4534 106.498 62.8349C106.498 63.2164 106.576 63.5512 106.735 63.8393C106.891 64.1273 107.097 64.3453 107.358 64.4932C107.615 64.6451 107.884 64.719 108.172 64.719C108.46 64.719 108.736 64.6451 108.993 64.4971C109.246 64.3531 109.452 64.1351 109.608 63.8509C109.768 63.5707 109.846 63.2359 109.846 62.8544C109.846 62.4729 109.768 62.1459 109.608 61.8656Z" fill="#6E6F72"/>
<path d="M112.559 59.1646C112.415 59.0206 112.349 58.8493 112.349 58.643C112.349 58.4367 112.415 58.2615 112.559 58.1213C112.699 57.9812 112.874 57.9111 113.08 57.9111C113.287 57.9111 113.45 57.9812 113.59 58.1213C113.734 58.2615 113.801 58.4367 113.801 58.643C113.801 58.8493 113.734 59.0206 113.59 59.1646C113.45 59.3047 113.279 59.3748 113.08 59.3748C112.874 59.3748 112.699 59.3047 112.559 59.1646ZM113.641 65.6227H112.5V60.1066H113.641V65.6227Z" fill="#6E6F72"/>
<path d="M119.091 60.2852C119.433 60.4682 119.702 60.7329 119.897 61.0871C120.091 61.4413 120.189 61.8657 120.189 62.3678V65.6222H119.056V62.5352C119.056 62.0447 118.931 61.6632 118.686 61.3985C118.437 61.1377 118.102 61.0054 117.674 61.0054C117.246 61.0054 116.907 61.1377 116.658 61.3985C116.409 61.6632 116.284 62.0408 116.284 62.5352V65.6222H115.144V60.1022H116.284V60.7329C116.471 60.5071 116.708 60.328 117 60.2035C117.292 60.0789 117.6 60.0166 117.927 60.0166C118.359 60.0166 118.752 60.1022 119.095 60.2852" fill="#6E6F72"/>
<path d="M126.658 63.2904H122.442C122.473 63.7303 122.641 64.0845 122.933 64.3531C123.225 64.6178 123.587 64.7541 124.015 64.7541C124.63 64.7541 125.062 64.4971 125.315 63.9794H126.549C126.382 64.4894 126.078 64.9059 125.642 65.229C125.206 65.5521 124.661 65.7156 124.015 65.7156C123.489 65.7156 123.014 65.5949 122.598 65.3613C122.181 65.1239 121.854 64.7891 121.617 64.357C121.379 63.9249 121.263 63.4266 121.263 62.8622C121.263 62.2977 121.376 61.7956 121.609 61.3635C121.839 60.9314 122.162 60.6005 122.578 60.3669C122.995 60.1334 123.474 60.0166 124.015 60.0166C124.556 60.0166 125 60.1295 125.405 60.3553C125.809 60.581 126.129 60.9002 126.354 61.3129C126.58 61.7216 126.693 62.1926 126.693 62.7259C126.693 62.9323 126.681 63.1191 126.654 63.2904M125.506 62.3678C125.498 61.9474 125.35 61.6087 125.054 61.3557C124.758 61.1027 124.396 60.9781 123.96 60.9781C123.567 60.9781 123.232 61.1027 122.952 61.3518C122.672 61.6009 122.504 61.9396 122.45 62.3678H125.506Z" fill="#6E6F72"/>
<path d="M132.836 63.2904H128.62C128.651 63.7303 128.818 64.0845 129.11 64.3531C129.402 64.6178 129.764 64.7541 130.193 64.7541C130.808 64.7541 131.24 64.4971 131.493 63.9794H132.727C132.559 64.4894 132.256 64.9059 131.82 65.229C131.384 65.5521 130.839 65.7156 130.193 65.7156C129.667 65.7156 129.192 65.5949 128.776 65.3613C128.359 65.1239 128.032 64.7891 127.795 64.357C127.557 63.9249 127.44 63.4266 127.44 62.8622C127.44 62.2977 127.553 61.7956 127.787 61.3635C128.017 60.9314 128.34 60.6005 128.756 60.3669C129.173 60.1334 129.652 60.0166 130.193 60.0166C130.734 60.0166 131.177 60.1295 131.582 60.3553C131.991 60.581 132.306 60.9002 132.532 61.3129C132.758 61.7216 132.871 62.1926 132.871 62.7259C132.871 62.9323 132.859 63.1191 132.832 63.2904M131.684 62.3678C131.676 61.9474 131.528 61.6087 131.232 61.3557C130.936 61.1027 130.574 60.9781 130.138 60.9781C129.745 60.9781 129.41 61.1027 129.13 61.3518C128.85 61.6009 128.682 61.9396 128.628 62.3678H131.684Z" fill="#6E6F72"/>
<path d="M135.806 60.2502C136.083 60.0944 136.41 60.0127 136.795 60.0127V61.1961H136.503C136.055 61.1961 135.717 61.309 135.487 61.5348C135.257 61.7605 135.141 62.1576 135.141 62.7143V65.6182H134V60.1022H135.141V60.9041C135.308 60.6239 135.53 60.4059 135.806 60.2463" fill="#6E6F72"/>
<path d="M137.901 59.1646C137.76 59.0206 137.69 58.8493 137.69 58.643C137.69 58.4367 137.76 58.2615 137.901 58.1213C138.045 57.9812 138.216 57.9111 138.422 57.9111C138.629 57.9111 138.796 57.9812 138.932 58.1213C139.076 58.2615 139.142 58.4367 139.142 58.643C139.142 58.8493 139.076 59.0206 138.932 59.1646C138.792 59.3047 138.621 59.3748 138.422 59.3748C138.224 59.3748 138.045 59.3047 137.901 59.1646ZM138.987 65.6227H137.846V60.1066H138.987V65.6227Z" fill="#6E6F72"/>
<path d="M144.436 60.2852C144.779 60.4682 145.048 60.7329 145.242 61.0871C145.437 61.4413 145.534 61.8657 145.534 62.3678V65.6222H144.401V62.5352C144.401 62.0447 144.277 61.6632 144.032 61.3985C143.783 61.1377 143.448 61.0054 143.02 61.0054C142.591 61.0054 142.253 61.1377 142.004 61.3985C141.754 61.6632 141.63 62.0408 141.63 62.5352V65.6222H140.489V60.1022H141.63V60.7329C141.817 60.5071 142.054 60.328 142.346 60.2035C142.638 60.0789 142.946 60.0166 143.273 60.0166C143.705 60.0166 144.098 60.1022 144.44 60.2852" fill="#6E6F72"/>
<path d="M150.346 60.2696C150.677 60.4409 150.934 60.655 151.121 60.908V60.1061H152.273V65.7156C152.273 66.2216 152.168 66.6732 151.954 67.0702C151.74 67.4673 151.428 67.7787 151.023 68.0045C150.618 68.2303 150.14 68.3432 149.575 68.3432C148.828 68.3432 148.205 68.168 147.714 67.8177C147.22 67.4673 146.94 66.9924 146.874 66.389H148.002C148.088 66.6771 148.275 66.9068 148.559 67.0858C148.843 67.2649 149.182 67.3505 149.575 67.3505C150.038 67.3505 150.408 67.2104 150.692 66.9301C150.977 66.6498 151.121 66.245 151.121 65.7117V64.7891C150.926 65.046 150.665 65.2679 150.334 65.447C150.003 65.6222 149.63 65.7117 149.209 65.7117C148.727 65.7117 148.287 65.5871 147.893 65.3419C147.496 65.1005 147.181 64.758 146.951 64.322C146.722 63.886 146.605 63.3916 146.605 62.8349C146.605 62.2783 146.722 61.7917 146.951 61.3635C147.181 60.9353 147.496 60.6044 147.893 60.3669C148.287 60.1295 148.727 60.0127 149.209 60.0127C149.637 60.0127 150.015 60.0983 150.346 60.2657M150.887 61.8656C150.731 61.5854 150.525 61.3713 150.272 61.2233C150.015 61.0793 149.746 61.0015 149.451 61.0015C149.155 61.0015 148.886 61.0715 148.629 61.2156C148.376 61.3596 148.17 61.5698 148.014 61.8462C147.855 62.1226 147.777 62.4534 147.777 62.8349C147.777 63.2164 147.855 63.5512 148.014 63.8393C148.17 64.1273 148.376 64.3453 148.637 64.4932C148.894 64.6451 149.163 64.719 149.451 64.719C149.739 64.719 150.015 64.6451 150.272 64.4971C150.525 64.3531 150.731 64.1351 150.887 63.8509C151.047 63.5707 151.124 63.2359 151.124 62.8544C151.124 62.4729 151.047 62.1459 150.887 61.8656Z" fill="#6E6F72"/>
<path d="M160.875 58.6621V59.5964H159.022V65.6223H157.882V59.5964H156.017V58.6621H160.875Z" fill="#6E6F72"/>
<path d="M163.008 65.3574C162.588 65.12 162.257 64.7891 162.02 64.357C161.778 63.9249 161.658 63.4266 161.658 62.8583C161.658 62.29 161.782 61.7995 162.031 61.3674C162.277 60.9353 162.615 60.6005 163.044 60.3669C163.472 60.1295 163.947 60.0127 164.472 60.0127C164.998 60.0127 165.48 60.1295 165.905 60.3669C166.333 60.6005 166.668 60.9314 166.913 61.3674C167.162 61.7995 167.287 62.2977 167.287 62.8583C167.287 63.4188 167.162 63.9171 166.905 64.3492C166.652 64.7852 166.306 65.12 165.87 65.3574C165.434 65.5988 164.951 65.7117 164.422 65.7117C163.892 65.7117 163.429 65.5949 163.008 65.3574ZM165.247 64.5127C165.504 64.3726 165.714 64.1624 165.87 63.8821C166.033 63.6018 166.111 63.2592 166.111 62.8583C166.111 62.4573 166.033 62.1187 165.881 61.8423C165.726 61.5659 165.523 61.3557 165.27 61.2194C165.013 61.0754 164.745 61.0092 164.449 61.0092C164.153 61.0092 163.884 61.0754 163.635 61.2194C163.382 61.3596 163.184 61.5698 163.04 61.8423C162.892 62.1187 162.818 62.4612 162.818 62.8583C162.818 63.4539 162.97 63.9132 163.273 64.2363C163.577 64.5594 163.958 64.7229 164.422 64.7229C164.714 64.7229 164.99 64.6528 165.247 64.5127Z" fill="#6E6F72"/>
<path d="M176.263 60.2852C176.606 60.4682 176.878 60.7329 177.077 61.0871C177.275 61.4413 177.373 61.8657 177.373 62.3678V65.6222H176.24V62.5352C176.24 62.0447 176.115 61.6632 175.87 61.3985C175.621 61.1377 175.286 61.0054 174.858 61.0054C174.43 61.0054 174.091 61.1377 173.842 61.3985C173.593 61.6632 173.468 62.0408 173.468 62.5352V65.6222H172.336V62.5352C172.336 62.0447 172.211 61.6632 171.966 61.3985C171.717 61.1377 171.382 61.0054 170.954 61.0054C170.525 61.0054 170.187 61.1377 169.938 61.3985C169.688 61.6632 169.564 62.0408 169.564 62.5352V65.6222H168.423V60.1022H169.564V60.7329C169.751 60.5071 169.988 60.328 170.276 60.2035C170.56 60.0789 170.868 60.0166 171.195 60.0166C171.639 60.0166 172.028 60.1061 172.378 60.293C172.725 60.4798 172.993 60.7484 173.176 61.1066C173.344 60.7718 173.605 60.5071 173.959 60.3125C174.313 60.1139 174.695 60.0166 175.099 60.0166C175.531 60.0166 175.925 60.1022 176.267 60.2852" fill="#6E6F72"/>
<path d="M179.802 65.3574C179.382 65.12 179.051 64.7891 178.813 64.357C178.572 63.9249 178.451 63.4266 178.451 62.8583C178.451 62.29 178.576 61.7995 178.825 61.3674C179.07 60.9353 179.409 60.6005 179.837 60.3669C180.265 60.1295 180.74 60.0127 181.266 60.0127C181.791 60.0127 182.274 60.1295 182.698 60.3669C183.126 60.6005 183.461 60.9314 183.706 61.3674C183.956 61.7995 184.08 62.2977 184.08 62.8583C184.08 63.4188 183.956 63.9171 183.699 64.3492C183.446 64.7852 183.099 65.12 182.663 65.3574C182.227 65.5988 181.744 65.7117 181.215 65.7117C180.686 65.7117 180.222 65.5949 179.802 65.3574ZM182.04 64.5127C182.297 64.3726 182.507 64.1624 182.663 63.8821C182.827 63.6018 182.904 63.2592 182.904 62.8583C182.904 62.4573 182.827 62.1187 182.675 61.8423C182.519 61.5659 182.317 61.3557 182.064 61.2194C181.807 61.0754 181.538 61.0092 181.242 61.0092C180.946 61.0092 180.678 61.0754 180.429 61.2194C180.176 61.3596 179.977 61.5698 179.833 61.8423C179.685 62.1187 179.611 62.4612 179.611 62.8583C179.611 63.4539 179.763 63.9132 180.067 64.2363C180.37 64.5594 180.752 64.7229 181.215 64.7229C181.507 64.7229 181.783 64.6528 182.04 64.5127Z" fill="#6E6F72"/>
<path d="M187.015 60.2502C187.292 60.0944 187.619 60.0127 188.004 60.0127V61.1961H187.712C187.264 61.1961 186.926 61.309 186.696 61.5348C186.466 61.7605 186.35 62.1576 186.35 62.7143V65.6182H185.209V60.1022H186.35V60.9041C186.517 60.6239 186.739 60.4059 187.015 60.2463" fill="#6E6F72"/>
<path d="M190.861 60.2502C191.138 60.0944 191.465 60.0127 191.85 60.0127V61.1961H191.558C191.111 61.1961 190.772 61.309 190.542 61.5348C190.313 61.7605 190.196 62.1576 190.196 62.7143V65.6182H189.055V60.1022H190.196V60.9041C190.363 60.6239 190.585 60.4059 190.861 60.2463" fill="#6E6F72"/>
<path d="M193.882 65.3574C193.462 65.12 193.131 64.7891 192.893 64.357C192.652 63.9249 192.531 63.4266 192.531 62.8583C192.531 62.29 192.656 61.7995 192.905 61.3674C193.15 60.9353 193.489 60.6005 193.917 60.3669C194.345 60.1295 194.82 60.0127 195.346 60.0127C195.871 60.0127 196.354 60.1295 196.778 60.3669C197.206 60.6005 197.541 60.9314 197.786 61.3674C198.036 61.7995 198.16 62.2977 198.16 62.8583C198.16 63.4188 198.036 63.9171 197.779 64.3492C197.526 64.7852 197.179 65.12 196.743 65.3574C196.307 65.5988 195.825 65.7117 195.295 65.7117C194.766 65.7117 194.302 65.5949 193.882 65.3574ZM196.12 64.5127C196.377 64.3726 196.587 64.1624 196.743 63.8821C196.907 63.6018 196.985 63.2592 196.985 62.8583C196.985 62.4573 196.907 62.1187 196.755 61.8423C196.599 61.5659 196.397 61.3557 196.144 61.2194C195.887 61.0754 195.618 61.0092 195.322 61.0092C195.026 61.0092 194.758 61.0754 194.509 61.2194C194.256 61.3596 194.057 61.5698 193.913 61.8423C193.765 62.1187 193.691 62.4612 193.691 62.8583C193.691 63.4539 193.843 63.9132 194.147 64.2363C194.45 64.5594 194.832 64.7229 195.295 64.7229C195.587 64.7229 195.863 64.6528 196.12 64.5127Z" fill="#6E6F72"/>
<path d="M206.701 60.1074L204.988 65.6234H203.785L202.676 61.5477L201.563 65.6234H200.36L198.639 60.1074H199.799L200.951 64.5413L202.123 60.1074H203.314L204.439 64.5218L205.576 60.1074H206.701Z" fill="#6E6F72"/>
<path d="M214.65 58.6621V59.5964H212.797V65.6223H211.657V59.5964H209.792V58.6621H214.65Z" fill="#6E6F72"/>
<path d="M216.783 65.3574C216.363 65.12 216.032 64.7891 215.794 64.357C215.553 63.9249 215.432 63.4266 215.432 62.8583C215.432 62.29 215.557 61.7995 215.806 61.3674C216.051 60.9353 216.39 60.6005 216.818 60.3669C217.246 60.1295 217.721 60.0127 218.247 60.0127C218.772 60.0127 219.255 60.1295 219.679 60.3669C220.107 60.6005 220.442 60.9314 220.687 61.3674C220.936 61.7995 221.061 62.2977 221.061 62.8583C221.061 63.4188 220.936 63.9171 220.68 64.3492C220.427 64.7852 220.08 65.12 219.644 65.3574C219.208 65.5988 218.725 65.7117 218.196 65.7117C217.667 65.7117 217.203 65.5949 216.783 65.3574ZM219.021 64.5127C219.278 64.3726 219.488 64.1624 219.644 63.8821C219.808 63.6018 219.885 63.2592 219.885 62.8583C219.885 62.4573 219.808 62.1187 219.656 61.8423C219.5 61.5659 219.298 61.3557 219.045 61.2194C218.788 61.0754 218.519 61.0092 218.223 61.0092C217.927 61.0092 217.659 61.0754 217.41 61.2194C217.157 61.3596 216.958 61.5698 216.814 61.8423C216.666 62.1187 216.592 62.4612 216.592 62.8583C216.592 63.4539 216.744 63.9132 217.048 64.2363C217.351 64.5594 217.733 64.7229 218.196 64.7229C218.488 64.7229 218.764 64.6528 219.021 64.5127Z" fill="#6E6F72"/>
<path d="M225.55 60.2696C225.88 60.4409 226.137 60.655 226.324 60.908V60.1061H227.476V65.7156C227.476 66.2216 227.371 66.6732 227.157 67.0702C226.943 67.4673 226.632 67.7787 226.227 68.0045C225.822 68.2303 225.343 68.3432 224.779 68.3432C224.031 68.3432 223.409 68.168 222.918 67.8177C222.424 67.4673 222.143 66.9924 222.077 66.389H223.206C223.292 66.6771 223.479 66.9068 223.763 67.0858C224.047 67.2649 224.386 67.3505 224.779 67.3505C225.242 67.3505 225.612 67.2104 225.896 66.9301C226.18 66.6498 226.324 66.245 226.324 65.7117V64.7891C226.13 65.046 225.869 65.2679 225.538 65.447C225.207 65.6222 224.833 65.7117 224.413 65.7117C223.93 65.7117 223.49 65.5871 223.097 65.3419C222.7 65.1005 222.385 64.758 222.155 64.322C221.925 63.886 221.809 63.3916 221.809 62.8349C221.809 62.2783 221.925 61.7917 222.155 61.3635C222.385 60.9353 222.7 60.6044 223.097 60.3669C223.49 60.1295 223.93 60.0127 224.413 60.0127C224.841 60.0127 225.219 60.0983 225.55 60.2657M226.091 61.8656C225.935 61.5854 225.729 61.3713 225.476 61.2233C225.219 61.0793 224.95 61.0015 224.654 61.0015C224.358 61.0015 224.09 61.0715 223.833 61.2156C223.58 61.3596 223.373 61.5698 223.218 61.8462C223.058 62.1226 222.98 62.4534 222.98 62.8349C222.98 63.2164 223.058 63.5512 223.218 63.8393C223.373 64.1273 223.58 64.3453 223.841 64.4932C224.098 64.6451 224.366 64.719 224.654 64.719C224.942 64.719 225.219 64.6451 225.476 64.4971C225.729 64.3531 225.935 64.1351 226.091 63.8509C226.25 63.5707 226.328 63.2359 226.328 62.8544C226.328 62.4729 226.25 62.1459 226.091 61.8656Z" fill="#6E6F72"/>
<path d="M233.997 63.2904H229.781C229.812 63.7303 229.98 64.0845 230.272 64.3531C230.564 64.6178 230.926 64.7541 231.354 64.7541C231.969 64.7541 232.401 64.4971 232.654 63.9794H233.888C233.721 64.4894 233.417 64.9059 232.981 65.229C232.545 65.5521 232 65.7156 231.354 65.7156C230.828 65.7156 230.353 65.5949 229.937 65.3613C229.52 65.1239 229.193 64.7891 228.956 64.357C228.718 63.9249 228.602 63.4266 228.602 62.8622C228.602 62.2977 228.714 61.7956 228.948 61.3635C229.178 60.9314 229.501 60.6005 229.917 60.3669C230.334 60.1334 230.813 60.0166 231.354 60.0166C231.895 60.0166 232.339 60.1295 232.743 60.3553C233.148 60.581 233.468 60.9002 233.693 61.3129C233.919 61.7216 234.032 62.1926 234.032 62.7259C234.032 62.9323 234.02 63.1191 233.993 63.2904M232.845 62.3678C232.837 61.9474 232.689 61.6087 232.393 61.3557C232.097 61.1027 231.735 60.9781 231.299 60.9781C230.906 60.9781 230.571 61.1027 230.291 61.3518C230.011 61.6009 229.843 61.9396 229.789 62.3678H232.845Z" fill="#6E6F72"/>
<path d="M236.492 61.0369V64.0928C236.492 64.2991 236.538 64.447 236.636 64.5404C236.733 64.6338 236.897 64.6728 237.13 64.6728H237.831V65.6226H236.928C236.414 65.6226 236.021 65.5019 235.748 65.2645C235.472 65.0231 235.336 64.6338 235.336 64.0928V61.0369H234.686V60.1066H235.336V58.7363H236.488V60.1066H237.831V61.0369H236.488H236.492Z" fill="#6E6F72"/>
<path d="M242.865 60.2848C243.196 60.4678 243.456 60.7325 243.643 61.0867C243.834 61.4409 243.931 61.8653 243.931 62.3674V65.6218H242.798V62.5348C242.798 62.0443 242.674 61.6628 242.425 61.3981C242.18 61.1373 241.841 61.005 241.417 61.005C240.992 61.005 240.65 61.1373 240.401 61.3981C240.147 61.6628 240.027 62.0404 240.027 62.5348V65.6218H238.886V58.21H240.027V60.7441C240.218 60.5106 240.463 60.3315 240.763 60.2031C241.058 60.0785 241.385 60.0162 241.74 60.0162C242.16 60.0162 242.534 60.1018 242.865 60.2848Z" fill="#6E6F72"/>
<path d="M250.401 63.2904H246.185C246.216 63.7303 246.384 64.0845 246.676 64.3531C246.968 64.6178 247.33 64.7541 247.758 64.7541C248.373 64.7541 248.805 64.4971 249.058 63.9794H250.292C250.125 64.4894 249.821 64.9059 249.385 65.229C248.949 65.5521 248.404 65.7156 247.758 65.7156C247.233 65.7156 246.758 65.5949 246.341 65.3613C245.925 65.1239 245.598 64.7891 245.36 64.357C245.123 63.9249 245.006 63.4266 245.006 62.8622C245.006 62.2977 245.119 61.7956 245.352 61.3635C245.582 60.9314 245.905 60.6005 246.322 60.3669C246.738 60.1334 247.217 60.0166 247.758 60.0166C248.299 60.0166 248.743 60.1295 249.148 60.3553C249.553 60.581 249.872 60.9002 250.098 61.3129C250.323 61.7216 250.436 62.1926 250.436 62.7259C250.436 62.9323 250.425 63.1191 250.397 63.2904M249.249 62.3678C249.241 61.9474 249.093 61.6087 248.797 61.3557C248.502 61.1027 248.14 60.9781 247.704 60.9781C247.31 60.9781 246.976 61.1027 246.695 61.3518C246.415 61.6009 246.248 61.9396 246.193 62.3678H249.249Z" fill="#6E6F72"/>
<path d="M253.367 60.2502C253.644 60.0944 253.971 60.0127 254.356 60.0127V61.1961H254.064C253.616 61.1961 253.278 61.309 253.048 61.5348C252.818 61.7605 252.702 62.1576 252.702 62.7143V65.6182H251.561V60.1022H252.702V60.9041C252.869 60.6239 253.091 60.4059 253.367 60.2463" fill="#6E6F72"/>
</svg>
