<svg width="86" height="86" viewBox="0 0 86 86" fill="none" xmlns="http://www.w3.org/2000/svg">
<path d="M37.1476 0L0.0961914 22.4426L13.7383 29.883L37.474 15.5043L61.9337 28.9498V29.021L75.0988 20.8608L37.1476 0Z" fill="#F05D50"/>
<path d="M37.6036 57.3598L28.2173 52.4972V38.4826L37.6036 43.3954V57.3598Z" fill="#EC3644"/>
<path d="M75.2245 58.0921L75.1952 20.9152L75.1031 20.8607L61.9338 29.0209V51.3003L75.2245 58.0921Z" fill="#BA1F37"/>
<path d="M85.205 82.5058L37.5913 57.4017V43.3871L85.205 68.5456V82.5058Z" fill="#BA1F37"/>
<path d="M60.0589 74.0149L46.672 66.4532L37.4866 70.6797V85.9999L60.0589 74.0149Z" fill="#BA1F37"/>
<path d="M37.4866 70.6798L13.6296 57.8704L13.6003 29.9667L13.7384 29.8788L0.0962497 22.4468L0.00836802 22.497L0 65.905L37.4866 86V70.6798Z" fill="#EC3644"/>
</svg>
